<?xml version="1.0" standalone="no"?>
<!DOCTYPE svg PUBLIC "-//W3C//DTD SVG 20010904//EN"
 "http://www.w3.org/TR/2001/REC-SVG-20010904/DTD/svg10.dtd">
<svg version="1.0" xmlns="http://www.w3.org/2000/svg"
 width="1216.000000pt" height="938.000000pt" viewBox="0 0 1216.000000 938.000000"
 preserveAspectRatio="xMidYMid meet">
<metadata>
Created by potrace 1.14, written by Peter Selinger 2001-2017
</metadata>
<g transform="translate(0.000000,938.000000) scale(0.100000,-0.100000)"
fill="rgba( 255, 0, 0, .7)" stroke="none">
<path fill="rgba( 255, 0, 0, .7)"
  d="M3990 9374 c-19 -2 -77 -9 -129 -15 -52 -6 -105 -15 -117 -19 -12 -5
-79 -20 -150 -35 -148 -30 -200 -45 -449 -125 -99 -32 -222 -70 -274 -85 -105
-29 -163 -57 -336 -158 -167 -98 -214 -136 -426 -347 -321 -318 -595 -693
-826 -1130 -85 -159 -172 -436 -207 -659 -9 -52 -17 -96 -19 -98 -3 -2 -18 12
-34 31 -31 34 -110 76 -144 76 -18 0 -19 -7 -13 -127 3 -71 19 -202 35 -293
42 -237 81 -504 86 -585 l3 -70 -73 140 c-149 285 -225 394 -391 558 -239 238
-425 385 -492 390 l-29 2 3 -80 c2 -62 12 -107 43 -200 51 -150 142 -382 248
-631 44 -106 100 -247 125 -315 77 -219 254 -673 302 -775 63 -136 244 -557
241 -561 -2 -1 -25 20 -52 48 -27 28 -57 55 -68 60 -22 12 -173 126 -242 183
-146 121 -249 181 -266 155 -36 -57 46 -258 206 -504 81 -125 146 -255 209
-415 20 -52 56 -133 79 -180 78 -154 233 -444 285 -533 64 -111 197 -294 236
-327 16 -14 61 -53 98 -86 38 -34 128 -103 201 -153 73 -51 164 -117 202 -147
39 -31 169 -122 290 -202 283 -188 395 -272 519 -390 100 -95 87 -91 -135 44
-123 75 -251 153 -284 173 -33 19 -141 76 -240 126 -99 50 -242 130 -318 178
-76 48 -140 87 -143 87 -2 0 -44 26 -93 57 -50 32 -102 65 -118 74 -15 9 -100
61 -188 114 -165 101 -314 188 -445 258 -80 43 -140 88 -233 177 -68 64 -143
118 -172 122 -17 2 -21 -3 -23 -34 -2 -21 4 -64 12 -96 25 -99 113 -326 152
-393 236 -406 642 -815 1126 -1136 247 -164 443 -264 798 -406 47 -19 150 -61
230 -94 217 -90 414 -157 615 -208 171 -44 189 -46 359 -52 l179 -6 36 -30
c20 -17 54 -48 76 -68 22 -21 65 -52 95 -68 l55 -31 -165 0 c-91 0 -224 7
-295 15 -112 13 -527 80 -900 145 -144 25 -328 50 -366 50 -31 0 -31 -1 -24
-37 17 -96 139 -208 338 -313 252 -132 655 -265 923 -304 54 -8 136 -22 180
-30 179 -32 478 -54 944 -67 190 -6 386 -13 435 -16 121 -6 262 11 336 42 56
24 64 25 123 14 81 -15 182 6 274 57 99 56 145 106 172 189 12 39 30 84 41
102 11 20 21 64 25 118 7 84 7 85 34 85 27 0 27 -1 34 -86 4 -48 14 -96 22
-109 8 -12 25 -55 39 -95 23 -69 62 -140 76 -140 3 0 27 -16 53 -35 91 -70
242 -108 340 -86 43 10 53 9 103 -14 70 -32 204 -48 338 -41 55 2 258 9 450
15 487 14 742 33 960 71 283 49 359 65 487 102 261 74 569 204 718 303 95 63
183 160 200 219 7 26 10 50 6 53 -11 11 -181 -13 -656 -93 -596 -100 -712
-114 -923 -114 l-172 1 43 21 c24 12 60 36 79 55 20 18 38 33 42 33 3 0 25 19
48 42 l44 43 182 7 c172 6 192 9 367 53 102 26 266 76 365 112 180 65 226 83
385 154 47 20 130 54 185 74 127 47 348 153 490 234 106 61 413 264 451 299
11 9 47 40 81 67 35 28 63 53 63 58 0 4 5 7 11 7 30 0 342 309 474 470 181
219 275 373 345 564 59 161 80 236 80 288 0 33 -3 38 -24 38 -27 0 -99 -51
-179 -126 -99 -94 -153 -131 -332 -231 -99 -55 -252 -144 -340 -198 -88 -54
-190 -116 -227 -139 -37 -23 -115 -71 -175 -107 -59 -36 -164 -101 -232 -143
-68 -42 -159 -92 -203 -111 -124 -55 -292 -151 -688 -394 l-85 -52 96 93 c119
116 230 200 501 380 117 78 258 175 312 217 55 42 138 102 185 135 117 80 316
244 353 291 106 135 194 278 337 550 154 294 178 344 232 480 67 169 93 219
191 373 166 261 245 454 209 511 -15 23 -92 -20 -234 -131 -73 -57 -170 -131
-217 -166 -97 -72 -170 -139 -170 -155 0 -5 -3 -8 -6 -4 -6 5 115 297 193 467
99 213 206 482 334 835 31 88 105 275 164 414 111 267 222 557 249 651 8 30
18 88 22 127 5 60 4 74 -9 78 -55 22 -293 -165 -555 -435 -132 -136 -213 -255
-342 -503 l-80 -152 0 60 c0 33 4 76 10 95 5 19 17 89 25 155 8 66 30 208 49
315 20 115 37 247 40 323 5 121 5 127 -14 127 -33 0 -113 -43 -144 -78 -35
-40 -41 -34 -50 55 -18 162 -121 502 -197 649 -166 320 -373 629 -612 914
-137 164 -408 426 -522 505 -163 112 -341 203 -483 245 -70 21 -219 67 -332
103 -113 36 -252 75 -310 87 -58 12 -150 33 -205 46 -134 32 -353 48 -550 40
-326 -12 -347 -29 -95 -81 63 -13 134 -31 158 -39 67 -24 177 -85 202 -111
l22 -24 -38 -10 c-55 -14 -94 -15 -304 -6 l-185 8 25 -27 c46 -50 227 -161
331 -203 38 -15 138 -69 284 -153 22 -12 144 -81 271 -152 223 -124 237 -134
370 -255 189 -172 440 -427 489 -497 55 -77 225 -284 265 -321 66 -62 109
-138 337 -600 100 -201 237 -446 323 -575 31 -47 71 -112 89 -145 17 -33 78
-123 136 -200 95 -128 138 -202 208 -355 25 -56 63 -217 53 -227 -3 -3 -22 -2
-42 2 -51 9 -101 60 -109 111 -8 51 -69 177 -108 220 -24 29 -32 32 -44 22
-12 -10 -14 -31 -10 -108 8 -165 -17 -219 -109 -240 -77 -18 -137 26 -170 123
-28 83 -92 124 -121 79 -6 -10 -14 -50 -18 -88 -9 -79 -18 -100 -73 -166 -30
-35 -45 -68 -61 -127 -23 -85 -60 -321 -86 -546 -33 -286 -91 -496 -202 -735
-63 -135 -161 -289 -406 -637 -20 -28 -66 -102 -104 -164 -38 -63 -87 -139
-110 -169 -22 -30 -101 -149 -174 -265 -73 -115 -160 -248 -193 -294 -119
-165 -218 -295 -274 -361 -231 -272 -363 -423 -411 -468 -61 -59 -140 -117
-147 -109 -6 6 40 84 251 422 92 149 184 297 203 330 19 33 74 111 121 173
116 153 124 162 221 281 195 238 314 408 308 438 -6 30 -81 23 -158 -15 -119
-57 -388 -227 -610 -385 -215 -154 -414 -298 -510 -371 -58 -44 -159 -120
-225 -170 -66 -49 -122 -92 -125 -95 -3 -3 -23 -19 -45 -36 -22 -16 -42 -32
-45 -35 -3 -3 -43 -35 -90 -71 -47 -37 -105 -90 -130 -119 -117 -138 -180
-209 -239 -269 -35 -37 -75 -82 -90 -101 -14 -19 -47 -59 -74 -89 -57 -64
-117 -154 -179 -271 -25 -47 -53 -86 -61 -88 -9 -2 -48 28 -89 68 -84 83 -133
109 -201 110 -65 0 -109 -25 -194 -109 -39 -39 -78 -71 -87 -71 -9 0 -27 23
-42 53 -51 101 -145 245 -202 308 -31 35 -70 82 -86 104 -16 22 -55 65 -85 95
-49 49 -164 179 -241 273 -48 59 -792 632 -804 620 -3 -4 -6 -2 -6 4 0 10 -78
68 -355 263 -73 52 -278 191 -316 215 -277 173 -397 228 -435 201 -25 -19 -13
-48 62 -153 58 -81 330 -427 387 -493 46 -53 156 -209 217 -310 35 -58 119
-193 186 -301 176 -283 246 -400 242 -405 -7 -7 -91 53 -145 103 -70 65 -461
524 -553 649 -164 223 -186 255 -406 599 -49 77 -100 153 -115 170 -14 16 -45
64 -69 105 -54 93 -142 227 -255 390 -125 179 -166 243 -222 345 -140 252
-220 513 -258 844 -53 451 -88 607 -151 676 -50 55 -60 79 -69 160 -8 84 -18
105 -48 105 -38 0 -65 -28 -88 -91 -13 -34 -37 -77 -54 -95 -29 -30 -38 -34
-84 -34 -37 0 -62 7 -89 24 -49 31 -62 83 -55 216 4 77 3 98 -9 108 -12 10
-20 7 -41 -14 -33 -33 -105 -177 -112 -226 -7 -48 -46 -93 -91 -108 -52 -17
-66 -8 -59 37 10 60 35 144 55 188 10 22 29 65 42 95 29 65 88 155 199 305 44
61 92 133 106 160 14 28 47 82 73 120 106 158 289 493 434 795 110 229 162
315 255 415 90 98 171 197 236 290 92 131 579 600 687 661 35 20 122 69 193
109 72 40 210 118 309 174 98 56 209 114 246 130 91 38 249 134 302 182 l43
40 -220 -6 c-169 -5 -230 -3 -264 7 l-45 14 29 27 c65 60 182 104 419 159 182
42 135 56 -199 62 -121 2 -236 2 -255 0z m-229 -202 c14 -12 20 -25 16 -35
-10 -27 -97 -83 -156 -102 -73 -22 -227 -103 -374 -196 -144 -91 -218 -128
-260 -132 -28 -2 -32 1 -35 27 -2 15 2 41 8 57 16 37 116 130 195 182 63 41
235 127 254 127 6 0 48 18 94 39 90 43 107 48 183 50 37 1 58 -4 75 -17z
m4822 -3 c34 -11 78 -29 97 -39 19 -10 67 -30 105 -46 232 -92 425 -247 425
-341 0 -19 -6 -36 -14 -39 -27 -10 -127 36 -267 124 -187 117 -281 167 -380
203 -44 16 -85 34 -92 39 -7 5 -27 21 -44 36 -39 30 -41 47 -11 68 31 22 107
20 181 -5z m-5829 -359 c8 -58 2 -88 -30 -150 -39 -77 -106 -138 -184 -165
-39 -14 -45 -14 -62 1 -23 21 -24 74 -1 122 64 138 168 242 244 242 24 0 27
-4 33 -50z m1006 32 c0 -48 -400 -285 -507 -299 -74 -10 -77 43 -6 108 47 45
261 171 321 190 31 10 87 18 125 18 58 1 67 -1 67 -17z m4828 -1 c63 -19 276
-144 325 -190 42 -38 61 -79 46 -97 -32 -38 -151 7 -375 143 -124 75 -184 122
-184 144 0 17 8 19 64 19 35 0 91 -8 124 -19z m938 -16 c27 -16 59 -49 84 -86
87 -127 111 -207 72 -242 -16 -14 -22 -14 -70 2 -73 25 -138 84 -177 161 -31
62 -37 93 -29 151 l7 51 34 -5 c19 -3 54 -18 79 -32z m-7185 -265 c41 -23 6
-147 -54 -187 -42 -29 -97 -41 -98 -22 -6 75 7 112 61 172 44 49 58 54 91 37z
m7555 -22 c57 -63 64 -75 73 -123 15 -78 4 -88 -68 -59 -50 20 -89 75 -97 138
-6 41 -4 51 11 62 29 21 49 17 81 -18z m-7106 -124 c0 -18 -5 -45 -11 -61 -12
-34 -81 -95 -92 -84 -18 18 -19 87 -3 118 37 73 106 91 106 27z m6666 5 c25
-26 29 -38 29 -84 0 -29 -4 -57 -8 -61 -10 -11 -57 18 -81 49 -10 14 -21 48
-24 76 -5 51 -4 51 25 51 20 0 39 -10 59 -31z m-6363 -31 c16 -12 16 -15 -3
-46 -11 -18 -34 -41 -52 -52 -35 -21 -112 -27 -123 -10 -13 21 46 99 85 113
27 10 76 7 93 -5z m6075 -2 c37 -20 69 -56 77 -88 7 -28 7 -28 -41 -28 -58 0
-106 26 -134 72 -19 31 -19 34 -3 46 22 16 68 15 101 -2z m-6744 -147 c15 -12
26 -30 26 -45 0 -42 -40 -148 -75 -196 -28 -38 -43 -49 -89 -62 -76 -22 -126
0 -126 57 0 94 55 201 128 249 37 25 102 23 136 -3z m7446 4 c57 -40 99 -97
114 -160 23 -90 21 -118 -11 -143 -48 -38 -144 -7 -191 62 -33 49 -72 152 -72
193 0 53 107 85 160 48z m-7100 -142 c0 -77 -117 -186 -201 -186 -48 0 -53 6
-45 50 14 73 141 175 219 175 25 0 27 -3 27 -39z m6739 10 c53 -28 118 -102
127 -146 8 -43 6 -44 -37 -51 -27 -4 -46 2 -89 28 -73 45 -120 107 -120 160
l0 41 41 -7 c22 -4 57 -15 78 -25z m-7529 -53 c22 -37 27 -126 9 -160 -22 -42
-101 -138 -137 -168 -46 -38 -111 -70 -142 -70 -22 0 -22 2 -16 56 13 115 72
235 159 325 59 62 97 67 127 17z m8319 -10 c88 -83 153 -216 168 -336 6 -51 5
-52 -21 -52 -34 0 -95 31 -141 71 -35 31 -113 128 -134 167 -19 35 -13 121 10
158 29 48 63 46 118 -8z m-8175 -338 c16 -16 -29 -97 -72 -128 -21 -15 -58
-36 -81 -47 -39 -17 -46 -18 -84 -4 -64 22 -61 47 10 104 104 84 190 112 227
75z m8031 -4 c28 -13 76 -44 108 -71 70 -56 73 -81 14 -104 -33 -12 -44 -12
-75 -1 -80 29 -153 95 -168 154 -5 21 -2 28 17 35 36 15 50 13 104 -13z
m-7765 4 c23 -12 15 -55 -26 -131 -75 -138 -184 -189 -184 -85 0 25 11 65 29
101 48 101 121 147 181 115z m7468 -4 c40 -21 68 -54 96 -116 34 -72 35 -133
3 -147 -27 -12 -47 -4 -90 36 -37 34 -92 126 -106 176 -9 34 -8 42 6 53 22 16
58 15 91 -2z m-8259 -205 c56 -56 34 -295 -40 -442 -23 -47 -82 -103 -130
-125 -39 -17 -40 -17 -64 6 -38 35 -49 82 -36 149 5 31 13 78 17 106 12 94 50
162 158 278 48 52 66 57 95 28z m9061 -34 c106 -114 142 -178 155 -272 3 -28
11 -78 17 -111 13 -70 3 -106 -37 -144 -21 -19 -27 -21 -57 -11 -113 37 -207
231 -208 426 0 111 22 164 68 165 7 0 35 -24 62 -53z m-8796 -212 c0 -94 -25
-154 -77 -185 -42 -26 -53 -25 -73 6 -36 54 -19 168 32 216 41 39 60 48 94 45
24 -2 25 -4 24 -82z m8548 38 c47 -47 66 -126 46 -188 -26 -77 -77 -69 -133
20 -23 38 -30 62 -33 116 -6 93 -1 103 45 96 24 -4 50 -19 75 -44z m-8220 -13
c-1 -14 -15 -50 -30 -80 -33 -65 -104 -120 -157 -120 -31 0 -34 3 -40 40 -13
80 27 135 125 172 25 9 59 16 75 15 26 -2 30 -6 27 -27z m7869 14 c101 -28
153 -102 132 -185 -8 -28 -14 -34 -34 -31 -77 9 -145 70 -178 158 -31 80 -22
86 80 58z m-8155 -440 c15 -58 -47 -162 -105 -177 -27 -7 -41 23 -41 87 0 68
45 114 112 115 22 1 29 -5 34 -25z m8467 -14 c29 -33 37 -93 17 -144 -8 -23
-12 -25 -37 -15 -41 15 -63 39 -85 88 -14 30 -18 53 -13 78 6 35 7 35 48 30
30 -4 50 -15 70 -37z m-9057 -76 c17 -36 23 -59 18 -78 -14 -55 -109 -105
-141 -73 -30 30 -14 143 29 215 l20 33 24 -22 c14 -13 36 -46 50 -75z m9650 4
c15 -44 21 -138 9 -157 -9 -15 -51 -14 -83 3 -84 44 -87 120 -6 215 l26 31 19
-24 c11 -14 26 -44 35 -68z m-10759 -128 c54 -31 237 -206 333 -318 43 -51 51
-65 40 -72 -8 -5 -26 -7 -40 -4 -14 3 -35 7 -47 10 -13 2 -39 31 -67 73 -49
73 -107 131 -132 131 -18 0 -34 -40 -34 -84 0 -52 29 -136 68 -196 20 -30 47
-81 59 -112 18 -48 93 -171 114 -188 23 -19 147 -204 169 -254 31 -67 73 -216
90 -316 53 -312 206 -851 271 -956 24 -39 42 -45 34 -11 -72 326 -91 450 -76
490 9 22 0 91 -44 351 -30 178 -64 348 -74 377 -10 30 -48 117 -83 194 -36 77
-75 167 -86 200 -11 33 -28 77 -36 97 -18 43 -22 123 -5 113 24 -16 239 -378
239 -404 0 -5 -5 -11 -10 -13 -11 -3 -14 -33 -12 -111 2 -40 5 -48 19 -45 20
4 31 35 32 93 1 34 3 37 15 25 7 -8 22 -40 33 -70 17 -47 18 -60 7 -90 -14
-38 -19 -190 -6 -190 4 0 15 14 24 31 32 55 33 52 89 -321 28 -183 49 -359 51
-415 1 -11 -7 -61 -16 -112 -21 -112 -18 -238 4 -238 20 0 54 102 76 228 10
53 20 97 23 97 3 0 17 -28 31 -63 17 -44 25 -84 26 -137 1 -41 10 -112 21
-157 11 -45 18 -85 15 -88 -3 -3 -23 -5 -44 -5 -38 0 -38 0 -39 -42 0 -24 -2
-73 -2 -110 -1 -37 -6 -68 -12 -69 -5 -1 -23 20 -38 46 -25 42 -28 55 -22 97
11 75 -3 188 -23 188 -9 0 -26 9 -38 21 l-22 21 5 -44 c3 -23 9 -61 14 -83 4
-22 6 -41 4 -43 -5 -5 -97 153 -146 249 -103 206 -225 507 -264 650 -23 87
-23 93 -7 105 14 11 17 29 16 124 -1 62 -6 116 -12 122 -24 24 -32 -6 -32
-120 l-1 -117 -28 72 c-16 40 -38 88 -49 107 -20 34 -20 35 -2 48 15 11 19 28
21 98 3 126 0 160 -11 160 -19 0 -50 -84 -51 -140 l-1 -55 -13 40 c-27 85 -77
200 -153 352 -133 266 -153 320 -211 568 -20 88 -29 245 -13 245 4 0 31 -14
59 -30z m11813 -54 c0 -40 -9 -108 -19 -152 -11 -43 -27 -110 -36 -149 -24
-103 -56 -183 -157 -387 -99 -201 -129 -270 -164 -368 l-23 -65 -1 55 c0 56
-30 140 -50 140 -11 0 -14 -34 -11 -160 2 -70 6 -87 21 -98 18 -13 18 -14 -2
-48 -11 -19 -33 -67 -49 -107 l-28 -72 -1 117 c0 64 -4 119 -8 122 -4 2 -14 1
-21 -3 -10 -6 -14 -40 -15 -119 -1 -90 2 -114 15 -127 13 -14 15 -25 7 -58
-14 -66 -75 -241 -130 -372 -89 -215 -280 -587 -294 -573 -1 2 1 21 5 43 5 22
11 60 14 85 l6 45 -22 -25 c-12 -14 -29 -24 -38 -22 -13 2 -18 -10 -24 -63 -4
-37 -4 -92 -1 -123 6 -52 4 -61 -24 -105 -17 -26 -35 -45 -40 -42 -6 3 -10 51
-9 105 0 55 -2 104 -6 110 -3 5 -24 10 -46 10 -34 0 -39 3 -35 18 24 78 44
194 39 232 -4 36 2 63 28 130 l33 85 13 -80 c41 -244 103 -352 103 -181 0 40
-7 113 -17 162 -9 49 -16 98 -15 109 1 47 21 231 26 245 3 8 15 83 26 165 35
252 53 355 62 355 5 0 17 -13 26 -30 9 -16 20 -30 25 -30 12 0 7 152 -7 190
-10 30 -9 43 8 90 30 86 42 92 49 25 6 -57 23 -93 38 -78 14 14 13 137 -1 160
-12 18 -8 29 26 89 21 38 45 81 53 96 32 63 137 222 149 226 19 6 15 -65 -6
-112 -10 -23 -26 -65 -36 -95 -10 -30 -48 -120 -86 -200 -37 -80 -75 -168 -84
-196 -9 -27 -41 -195 -71 -372 -44 -258 -53 -328 -44 -350 14 -37 5 -114 -36
-298 -18 -82 -36 -168 -39 -190 l-7 -40 30 35 c36 42 141 351 190 555 51 217
89 388 96 435 11 76 56 232 84 295 27 59 73 130 137 210 64 81 128 181 150
237 12 31 36 78 54 104 37 52 70 148 70 199 0 45 -16 85 -34 85 -25 0 -76 -50
-126 -126 -28 -40 -58 -75 -67 -78 -47 -13 -79 -15 -92 -7 -12 8 -3 23 45 78
162 186 356 355 386 337 4 -3 8 -38 8 -78z m-10220 -135 c0 -8 -79 -127 -278
-419 -76 -111 -172 -290 -221 -415 -16 -40 -41 -124 -55 -187 -45 -198 -58
-241 -71 -228 -3 3 -14 85 -25 184 -11 98 -24 197 -29 219 -10 44 -36 219 -76
510 -15 104 -33 220 -41 258 -8 38 -14 70 -14 72 0 5 201 10 553 13 144 1 257
-2 257 -7z m9368 -6 c1 -1 -4 -33 -12 -71 -8 -38 -29 -170 -46 -294 -42 -309
-60 -429 -70 -470 -5 -19 -16 -102 -25 -185 -31 -300 -31 -300 -105 13 -49
207 -137 396 -288 617 -149 217 -262 388 -262 397 0 7 799 0 808 -7z m-9559
-1099 c25 -101 8 -173 -47 -190 -29 -9 -42 24 -43 105 -1 53 2 63 32 97 19 22
37 37 40 36 4 -2 12 -24 18 -48z m8998 12 c30 -29 33 -37 33 -94 0 -84 -13
-118 -42 -108 -38 12 -57 45 -58 97 0 49 18 137 28 137 3 0 21 -14 39 -32z
m-9208 -234 c38 -32 51 -77 51 -183 0 -72 -4 -92 -30 -145 -36 -77 -63 -104
-85 -86 -24 20 -36 78 -42 215 -6 136 0 167 42 209 22 21 28 20 64 -10z m9435
-5 c14 -17 29 -42 32 -56 9 -35 -3 -259 -16 -304 -23 -82 -57 -74 -105 26 -31
65 -35 81 -35 156 0 46 5 101 10 121 10 33 59 88 80 88 4 0 20 -14 34 -31z
m-9021 -11 c20 -10 21 -18 3 -83 -25 -94 -93 -201 -149 -235 -18 -11 -35 -20
-39 -20 -12 0 -9 178 3 230 13 56 46 107 79 119 26 10 73 5 103 -11z m8675
-22 c18 -21 34 -54 41 -86 11 -52 15 -230 5 -230 -12 0 -51 24 -77 49 -51 47
-127 208 -127 268 0 18 36 32 86 32 36 1 47 -4 72 -33z m-8427 -78 c14 -54 6
-176 -15 -216 -20 -39 -78 -54 -104 -28 -22 22 -24 169 -2 206 8 14 13 28 12
32 -3 13 51 48 74 48 19 0 25 -8 35 -42z m8117 22 c17 -11 31 -23 30 -27 -1
-5 4 -19 11 -31 31 -57 21 -205 -15 -219 -8 -3 -29 -1 -47 4 -25 7 -35 18 -49
53 -31 82 -18 240 20 240 9 0 32 -9 50 -20z m-8327 -413 c29 -22 39 -55 39
-131 0 -79 -24 -165 -58 -203 -23 -27 -62 -47 -72 -36 -30 34 -46 254 -22 300
19 36 66 83 82 83 8 0 22 -6 31 -13z m8528 -16 c47 -46 54 -68 54 -171 -1
-103 -20 -183 -44 -188 -28 -5 -88 66 -104 123 -29 99 -18 220 23 251 25 20
38 17 71 -15z m-8200 -13 c40 -43 39 -120 -3 -213 -23 -50 -50 -85 -66 -85 -5
0 -16 20 -26 45 -14 37 -16 64 -11 141 4 52 11 103 17 114 15 27 63 26 89 -2z
m7880 13 c31 -20 41 -206 15 -271 -9 -22 -20 -40 -24 -40 -45 0 -114 182 -97
252 14 53 68 83 106 59z m-8534 -61 c23 -46 25 -61 26 -187 1 -77 -4 -150 -10
-165 -20 -53 -48 -30 -82 70 -15 42 -19 84 -19 178 0 116 1 124 22 138 12 9
26 16 30 16 4 0 19 -22 33 -50z m9182 28 c8 -6 12 -50 12 -132 1 -96 -3 -135
-18 -178 -57 -166 -93 -129 -92 95 1 126 3 142 26 187 25 50 37 54 72 28z
m-10067 -144 c47 -42 75 -119 60 -159 -5 -14 -11 -25 -13 -25 -6 0 -99 119
-114 144 -7 12 -12 33 -13 49 0 39 31 36 80 -9z m10960 1 c0 -28 -11 -49 -49
-95 -28 -33 -55 -68 -60 -77 -10 -17 -12 -17 -26 1 -26 34 3 123 56 170 52 48
79 48 79 1z m-10730 -165 c94 -93 96 -97 76 -119 -11 -12 -16 -31 -14 -53 l4
-33 21 44 21 43 17 -26 c14 -21 15 -31 6 -57 -16 -47 -14 -99 4 -99 11 0 15
12 15 45 0 48 8 55 32 28 34 -39 39 -61 23 -92 -16 -33 -20 -91 -6 -91 12 0
21 26 21 61 0 39 20 37 48 -4 28 -42 28 -69 -2 -113 l-23 -34 -29 42 c-34 50
-45 64 -98 127 -42 49 -107 148 -146 221 -14 25 -30 52 -38 61 -7 10 -16 43
-19 75 -7 68 -9 69 87 -26z m10490 -37 c-29 -67 -133 -232 -178 -284 -21 -24
-60 -74 -87 -111 l-48 -68 -24 35 c-30 45 -29 72 7 119 l29 38 6 -26 c3 -14 7
-37 10 -51 3 -14 10 -25 15 -25 15 0 12 57 -5 91 -16 31 -11 53 23 92 24 27
32 20 32 -28 0 -33 4 -45 15 -45 18 0 21 54 5 95 -8 20 -6 34 7 58 l16 32 11
-32 c6 -18 17 -38 24 -45 19 -19 16 51 -4 73 -16 17 -14 21 22 61 21 24 61 64
88 90 l51 47 3 -34 c2 -20 -6 -55 -18 -82z m-9080 -171 c35 -36 45 -102 31
-206 -12 -85 -26 -119 -66 -156 -26 -25 -27 -25 -41 -5 -19 26 -41 105 -49
176 -13 107 29 219 80 219 9 0 29 -13 45 -28z m7678 13 c34 -24 56 -114 48
-197 -8 -77 -29 -154 -49 -182 -34 -47 -91 37 -108 160 -14 103 -5 166 31 204
32 34 46 37 78 15z m-8211 -113 c17 -42 33 -167 26 -205 -14 -70 -63 12 -84
144 -9 53 -9 76 0 95 10 23 14 24 28 13 9 -8 22 -29 30 -47z m8727 -21 c-2
-106 -53 -235 -82 -206 -12 12 -3 152 14 202 34 101 70 103 68 4z m-8494 10
c31 -32 40 -51 49 -104 14 -82 14 -87 -5 -144 -20 -62 -57 -98 -84 -81 -44 28
-60 79 -60 191 0 104 10 154 33 169 21 13 29 9 67 -31z m8276 18 c15 -17 19
-40 22 -125 5 -132 -1 -163 -40 -202 -28 -30 -33 -31 -52 -19 -83 55 -80 270
5 342 37 30 41 31 65 4z m-8873 -18 c27 -33 118 -206 165 -316 24 -56 31 -89
35 -167 l5 -98 -24 29 c-21 25 -23 36 -18 70 4 24 2 46 -4 53 -6 7 -13 30 -17
51 -11 59 -24 43 -27 -35 l-3 -73 -24 40 c-22 37 -24 50 -22 157 2 78 -1 118
-9 123 -20 13 -29 -8 -36 -84 -7 -67 -8 -72 -22 -55 -14 19 -142 279 -142 289
0 3 5 5 11 5 7 0 17 8 24 17 11 14 16 15 28 5 12 -11 18 -10 29 2 18 21 23 20
51 -13z m9479 10 c14 7 20 6 24 -6 3 -8 12 -15 20 -15 8 0 14 -3 14 -7 0 -3
-35 -76 -77 -162 l-77 -156 -8 65 c-10 89 -17 112 -31 107 -8 -3 -12 -40 -13
-125 -1 -108 -4 -124 -25 -159 l-24 -38 -3 73 c-3 78 -16 94 -27 35 -4 -21
-11 -44 -17 -51 -6 -7 -8 -29 -4 -53 5 -34 3 -45 -18 -70 l-24 -29 5 98 c4 82
11 109 40 177 55 123 133 274 160 306 23 27 26 28 45 14 15 -10 26 -11 40 -4z
m-9601 -248 c13 -21 27 -41 32 -44 6 -4 7 -35 2 -74 -5 -54 -4 -66 7 -63 7 3
15 20 18 38 5 33 6 33 23 15 38 -37 46 -60 45 -126 -1 -70 5 -89 28 -89 11 0
12 4 4 19 -12 23 -13 71 -2 88 13 20 74 -66 67 -94 -3 -13 -8 -44 -10 -71 -6
-49 2 -43 26 23 l10 30 40 -45 c47 -54 54 -77 36 -113 -10 -19 -12 -40 -6 -74
4 -27 8 -53 8 -59 1 -7 9 -14 19 -17 9 -2 25 -8 35 -12 15 -6 17 -1 17 46 l0
54 59 -90 c157 -244 406 -677 395 -688 -8 -8 -159 139 -224 218 -31 39 -75 97
-96 131 -22 33 -56 80 -76 105 -39 47 -78 103 -168 239 -73 111 -102 162 -131
235 -23 59 -55 110 -130 210 -21 28 -53 76 -72 108 l-35 58 26 39 c14 22 27
40 28 40 1 0 13 -17 25 -37z m9689 -3 c7 -16 17 -30 22 -30 14 0 -32 -77 -119
-200 -41 -57 -98 -154 -127 -215 -53 -111 -236 -398 -285 -446 -14 -14 -33
-38 -42 -53 -78 -135 -336 -425 -353 -397 -5 7 109 215 218 395 39 66 82 138
95 160 13 22 49 79 80 126 l56 85 3 -47 c2 -27 6 -48 11 -48 26 0 60 28 65 54
9 45 7 114 -4 121 -20 12 -9 43 32 95 l42 53 23 -49 c17 -39 22 -44 22 -24 0
14 -4 44 -9 68 -10 40 -8 46 22 88 22 31 34 41 40 32 11 -18 10 -66 -2 -89 -8
-15 -7 -19 4 -19 24 0 30 19 28 90 -1 61 2 70 31 106 l32 38 5 -33 c3 -19 11
-36 18 -39 10 -3 12 8 7 55 -7 54 -5 62 25 110 18 29 36 50 40 48 4 -3 13 -18
20 -35z m-9931 -70 c4 0 15 -24 26 -52 10 -29 22 -59 28 -66 7 -9 5 -16 -8
-26 -15 -11 -17 -21 -11 -69 4 -30 14 -61 22 -68 16 -13 16 -13 14 61 -1 30 1
53 3 50 7 -7 102 -172 109 -190 3 -8 14 -33 23 -55 14 -32 14 -37 2 -27 -17
14 -27 -2 -27 -44 0 -13 -3 -24 -7 -24 -5 0 -42 60 -85 133 -87 151 -104 184
-123 238 -13 35 -12 38 5 44 17 6 19 14 16 73 -2 37 -2 57 1 45 2 -13 8 -23
12 -23z m10136 -24 c-4 -58 -3 -65 15 -71 19 -6 19 -7 0 -57 -11 -28 -47 -101
-81 -162 -110 -198 -129 -224 -129 -172 0 42 -10 58 -27 44 -20 -17 3 40 64
152 73 135 73 135 73 61 0 -54 2 -62 14 -52 8 7 18 38 22 68 5 45 4 59 -9 67
-13 10 -12 19 10 71 14 33 29 64 34 70 5 5 9 17 9 27 0 10 2 18 5 18 3 0 3
-29 0 -64z m-8701 -38 c28 -45 56 -159 56 -233 0 -58 -4 -77 -21 -99 -40 -51
-96 -20 -141 79 -17 38 -22 69 -23 126 0 85 13 110 70 135 40 18 42 17 59 -8z
m7343 -9 c32 -27 46 -71 41 -134 -13 -157 -123 -273 -173 -181 -15 27 -17 48
-12 117 5 79 34 186 57 215 12 14 61 4 87 -17z m-7996 -109 c87 -24 121 -108
107 -260 -13 -145 -16 -147 -73 -46 -51 91 -85 196 -85 261 0 60 -1 59 51 45z
m8609 -43 c0 -88 -85 -303 -129 -326 -18 -10 -19 -5 -26 82 -10 113 -8 151 5
192 18 53 79 100 138 104 8 1 12 -16 12 -52z m-8260 -44 c77 -54 105 -130 104
-283 0 -166 -40 -224 -99 -146 -54 71 -85 207 -85 379 0 67 0 67 28 67 15 0
39 -8 52 -17z m7937 -106 c-7 -140 -21 -214 -49 -272 -72 -144 -131 -102 -132
95 -1 76 4 120 17 160 28 83 85 140 141 140 l29 0 -6 -123z m-7405 2 c32 -15
91 -91 105 -136 26 -86 -32 -213 -98 -213 -33 0 -50 27 -67 105 -24 103 -20
203 8 233 24 26 22 25 52 11z m6843 -9 c10 -11 21 -39 26 -62 10 -54 -7 -180
-31 -235 -16 -36 -23 -43 -48 -43 -43 0 -86 54 -103 130 -14 59 8 117 66 177
28 29 56 53 62 53 5 0 18 -9 28 -20z m-8188 -197 c20 -21 68 -78 108 -128 62
-77 73 -97 77 -137 3 -27 1 -48 -3 -48 -26 0 -156 148 -216 245 -24 38 -31
105 -12 105 6 0 27 -17 46 -37z m9543 -8 c0 -19 -4 -36 -9 -40 -6 -3 -24 -30
-41 -60 -35 -62 -177 -218 -191 -210 -5 3 -6 27 -2 53 5 39 19 63 78 138 80
100 145 165 157 158 4 -3 8 -20 8 -39z m-10355 -104 c27 -27 52 -48 56 -45 8
4 24 -270 18 -301 -7 -32 -23 -21 -65 43 -53 79 -124 259 -124 312 0 39 1 40
33 40 27 0 43 -10 82 -49z m11225 9 c0 -53 -70 -230 -122 -310 -44 -67 -60
-78 -67 -45 -6 34 11 305 19 300 5 -3 17 5 27 17 36 45 84 78 114 78 27 0 29
-3 29 -40z m-9232 -135 c40 -34 83 -143 90 -227 4 -64 3 -68 -26 -97 -49 -50
-66 -42 -101 46 -36 93 -55 259 -31 288 18 21 34 19 68 -10z m7187 11 c14 -10
18 -25 17 -62 -3 -78 -21 -170 -43 -227 -35 -88 -52 -96 -100 -48 -24 25 -29
38 -29 79 0 47 28 150 56 204 13 25 59 68 73 68 4 0 16 -6 26 -14z m-8943 -55
c121 -80 185 -119 240 -147 29 -15 104 -58 167 -96 62 -38 139 -82 170 -98 58
-31 143 -100 123 -100 -7 0 -12 -10 -12 -22 0 -40 12 -68 28 -68 12 0 14 9 9
44 l-6 44 129 -64 c71 -36 144 -79 162 -96 18 -17 76 -53 128 -79 52 -26 129
-67 170 -91 68 -39 75 -47 82 -83 17 -87 22 -94 28 -38 l5 51 33 -13 c30 -13
32 -18 32 -60 0 -54 23 -59 28 -7 2 18 6 32 8 32 22 0 221 -138 289 -200 37
-34 194 -147 255 -183 25 -14 63 -41 84 -59 22 -18 66 -55 99 -83 33 -27 78
-64 101 -81 58 -45 161 -152 153 -160 -3 -4 -64 31 -134 78 -70 46 -156 101
-190 122 -35 21 -63 42 -63 47 0 5 -3 8 -7 7 -11 -3 -159 94 -310 204 -130 94
-147 105 -263 163 -36 18 -108 56 -160 85 -52 29 -117 65 -145 80 -27 15 -108
60 -180 100 -71 39 -137 78 -145 85 -8 8 -27 18 -41 23 -24 10 -25 13 -22 74
3 46 1 59 -6 48 -6 -8 -11 -34 -11 -57 0 -48 -7 -52 -41 -24 -21 17 -22 21
-11 58 17 56 16 69 -3 53 -8 -7 -17 -27 -21 -46 -3 -19 -10 -34 -15 -34 -5 0
-90 41 -189 90 -99 50 -188 90 -197 90 -10 1 -36 9 -58 20 -22 11 -45 19 -51
20 -23 0 -98 92 -298 368 -21 28 -33 52 -28 52 6 0 43 -22 84 -49z m10692 -3
c-224 -308 -283 -378 -322 -378 -9 0 -26 -7 -36 -15 -11 -8 -28 -15 -39 -15
-11 0 -102 -40 -204 -90 -101 -49 -188 -90 -194 -90 -5 0 -9 7 -9 15 0 21 -30
78 -37 71 -3 -3 0 -26 7 -52 13 -45 12 -48 -9 -66 -34 -27 -41 -23 -41 25 0
23 -5 49 -11 57 -8 11 -9 -3 -6 -52 4 -55 2 -68 -10 -68 -8 0 -33 -13 -56 -28
-23 -16 -114 -68 -202 -117 -88 -48 -178 -98 -200 -110 -22 -12 -114 -62 -205
-110 -91 -48 -212 -122 -270 -164 -105 -77 -193 -138 -325 -223 -38 -25 -141
-92 -228 -148 -87 -57 -161 -100 -164 -96 -8 8 94 114 159 164 25 21 92 75
149 121 56 46 124 96 151 112 60 35 164 112 279 204 80 65 226 165 241 165 4
0 8 -14 10 -32 5 -51 26 -46 30 7 3 42 6 48 36 60 l32 14 0 -52 c0 -62 15 -48
25 25 7 46 9 50 68 85 34 20 109 60 167 90 58 29 121 67 140 84 19 17 94 62
166 99 l131 68 -5 -44 c-4 -35 -1 -44 11 -44 15 0 27 28 27 68 0 12 -5 22 -11
22 -6 0 4 12 23 28 18 15 35 31 36 35 2 4 30 21 62 37 31 16 110 61 175 100
65 39 145 85 178 102 50 25 134 77 282 174 37 24 37 14 -1 -38z m-9244 -89
c85 -52 191 -208 198 -293 4 -53 -10 -106 -28 -106 -20 0 -85 78 -145 175 -32
53 -65 101 -72 106 -6 6 -17 26 -23 45 -6 19 -16 34 -21 34 -5 0 -9 14 -9 30
0 27 3 30 33 30 17 0 48 -10 67 -21z m7840 -8 c0 -16 -7 -34 -15 -41 -8 -7
-15 -17 -15 -23 0 -5 -10 -24 -23 -41 -13 -17 -46 -69 -74 -116 -53 -88 -121
-170 -142 -170 -32 0 -40 97 -14 162 53 135 173 258 251 258 29 0 32 -3 32
-29z m-6154 -82 c62 -38 139 -81 171 -95 170 -75 315 -161 506 -303 111 -82
111 -82 266 -217 158 -137 339 -327 439 -459 45 -60 82 -112 82 -116 0 -7
-165 -19 -271 -19 l-75 0 -30 39 c-60 82 -232 278 -298 341 -85 81 -82 78
-136 119 -25 19 -79 67 -120 106 -69 66 -133 106 -146 92 -23 -23 118 -277
290 -523 59 -83 106 -154 106 -157 0 -3 -43 -8 -96 -12 -94 -7 -97 -7 -115 16
-35 45 -75 124 -154 304 -44 99 -91 193 -105 210 -15 16 -48 68 -75 115 -27
47 -59 99 -72 115 -12 17 -51 80 -87 140 -36 61 -78 128 -95 150 -31 43 -85
135 -114 199 -23 49 -21 48 129 -45z m4467 -17 c-25 -48 -62 -109 -83 -137
-21 -27 -61 -90 -90 -140 -29 -49 -67 -110 -84 -135 -18 -25 -55 -86 -84 -136
-29 -51 -59 -98 -68 -105 -20 -17 -59 -95 -124 -249 -51 -124 -95 -209 -134
-262 -19 -27 -23 -28 -105 -28 -47 0 -92 4 -99 9 -11 6 0 28 44 92 32 46 69
100 84 119 15 19 69 104 120 189 91 151 150 274 137 288 -14 14 -77 -28 -159
-104 -45 -43 -99 -89 -118 -103 -91 -63 -294 -279 -424 -451 l-30 -39 -115 1
c-64 1 -142 4 -174 8 l-59 6 41 60 c93 137 316 377 486 525 264 229 474 373
699 480 80 38 195 101 257 139 62 39 116 68 120 65 4 -2 -13 -44 -38 -92z
m-5433 33 c67 -34 105 -86 104 -141 -1 -51 -15 -71 -69 -95 -58 -27 -81 -24
-126 19 -33 31 -42 47 -54 107 -18 86 -19 122 -2 128 33 14 101 5 147 -18z
m6444 19 c20 -8 20 -38 1 -129 -13 -60 -20 -75 -56 -109 -43 -41 -64 -43 -131
-17 -65 25 -82 112 -34 176 47 61 161 102 220 79z m-6065 -160 c46 -58 52
-172 11 -194 -40 -21 -65 -12 -90 32 -60 106 10 250 79 162z m5627 -1 c27 -42
23 -110 -10 -166 -24 -42 -30 -46 -54 -41 -41 10 -50 22 -58 69 -16 111 73
212 122 138z m-7572 -309 c109 -46 152 -77 177 -127 24 -47 48 -77 61 -77 5 0
0 15 -11 34 -24 39 -26 46 -8 46 35 0 431 -213 542 -291 45 -31 180 -110 464
-270 186 -105 307 -186 398 -265 24 -20 82 -59 130 -86 49 -27 95 -56 103 -64
40 -39 -150 25 -380 127 -267 118 -622 297 -660 334 -19 18 -69 50 -110 70
-91 45 -83 40 -164 95 -43 29 -61 47 -53 52 9 5 7 15 -7 40 -34 59 -108 158
-117 158 -25 0 2 -58 62 -136 21 -28 39 -54 39 -57 0 -4 -24 10 -52 30 -29 20
-100 68 -158 107 -193 128 -429 317 -465 372 -12 18 -1 15 58 -18 40 -22 108
-55 151 -74z m9596 44 c-94 -89 -238 -202 -376 -294 -65 -45 -149 -102 -186
-128 -38 -26 -68 -44 -68 -40 0 4 18 30 39 58 60 78 87 136 62 136 -9 0 -83
-99 -117 -158 -15 -26 -16 -35 -6 -41 9 -5 -10 -23 -60 -57 -40 -27 -77 -51
-83 -53 -47 -16 -145 -73 -180 -103 -36 -32 -318 -180 -485 -256 -25 -11 -90
-41 -145 -67 -191 -89 -407 -166 -422 -151 -6 5 64 51 105 69 15 6 29 14 32
18 3 3 19 13 35 22 17 8 58 39 91 69 55 47 142 109 244 173 39 25 92 54 195
110 154 83 302 169 394 229 220 142 541 310 559 292 2 -3 -6 -21 -18 -40 -12
-20 -17 -36 -11 -36 6 0 25 21 41 48 51 83 59 90 132 124 39 18 116 56 172 85
56 28 106 52 111 52 6 1 -19 -27 -55 -61z m-9893 -44 c41 -21 101 -64 140
-100 37 -35 69 -64 71 -64 2 0 36 -29 75 -65 193 -175 696 -487 891 -551 28
-9 102 -46 166 -80 63 -35 131 -69 150 -75 19 -6 44 -19 54 -28 23 -20 76 -91
76 -103 0 -16 -40 -8 -117 23 -43 17 -99 38 -126 45 -212 64 -777 357 -952
493 -33 26 -88 66 -121 89 -135 91 -284 232 -284 270 0 6 -6 12 -13 12 -13 0
-74 75 -96 118 -12 23 -9 52 6 52 4 0 40 -16 80 -36z m10119 21 c7 -17 -32
-86 -73 -130 -15 -17 -45 -51 -65 -77 -61 -75 -130 -140 -208 -193 -40 -27
-109 -77 -154 -110 -113 -84 -171 -122 -321 -206 -223 -124 -481 -244 -670
-309 -44 -15 -110 -39 -147 -54 -43 -16 -69 -22 -74 -15 -6 10 36 78 61 99 22
19 328 171 415 206 173 72 399 200 575 327 44 32 110 78 146 103 36 24 124 97
195 161 128 115 166 143 252 189 53 28 61 29 68 9z m-7908 -38 c14 -7 35 -25
46 -40 48 -66 12 -236 -64 -300 -41 -35 -52 -27 -96 68 -54 118 -73 263 -36
285 20 13 115 5 150 -13z m5766 5 c15 -8 -1 -153 -25 -222 -22 -64 -59 -133
-78 -144 -17 -11 -78 52 -100 105 -60 137 -24 248 86 269 36 7 98 3 117 -8z
m-6165 -174 c36 -12 75 -31 88 -44 25 -25 30 -73 12 -121 -9 -26 -86 -113 -99
-113 -12 0 -83 104 -111 163 -27 57 -38 125 -23 140 9 8 56 -1 133 -25z m6541
-16 c0 -20 -11 -60 -24 -89 -28 -59 -103 -173 -114 -173 -13 1 -72 60 -92 92
-25 41 -26 108 -2 136 28 34 195 89 225 75 4 -2 7 -21 7 -41z m-5698 7 c58
-31 111 -107 129 -187 6 -29 4 -38 -16 -58 -68 -68 -155 13 -208 193 -9 28
-13 54 -10 57 10 10 83 7 105 -5z m4811 5 c14 -5 14 -11 0 -57 -55 -185 -139
-262 -209 -192 -28 28 -27 36 12 123 45 100 127 153 197 126z m-4986 -268 c67
-34 125 -136 140 -244 7 -52 -10 -72 -59 -72 -86 0 -220 231 -194 334 6 24 7
25 45 11 21 -7 52 -20 68 -29z m5178 13 c30 -93 -109 -329 -193 -329 -49 0
-66 20 -59 72 16 119 77 215 161 254 63 29 83 30 91 3z m306 -212 c-35 -72
-105 -157 -128 -157 -34 0 -53 31 -53 88 0 47 4 57 30 82 41 38 169 79 179 57
2 -5 -11 -36 -28 -70z m-5824 58 c20 -9 52 -27 70 -41 30 -23 33 -30 33 -79 0
-43 -5 -58 -22 -75 -12 -11 -27 -20 -34 -20 -28 0 -128 141 -149 208 -6 20 -3
22 30 22 19 0 52 -7 72 -15z m796 -71 c86 -45 122 -164 69 -230 -27 -32 -69
-56 -89 -50 -10 3 -33 29 -52 56 -28 40 -36 63 -39 110 -3 41 -1 60 7 60 6 0
19 16 28 35 19 39 30 42 76 19z m4217 7 c0 -4 12 -26 26 -47 37 -54 30 -115
-21 -189 -46 -67 -68 -70 -118 -18 -57 58 -57 135 -2 205 33 41 115 76 115 49z
m-3258 -231 c104 -52 138 -114 78 -145 -61 -32 -120 -12 -238 79 -56 44 -73
73 -51 88 26 17 161 3 211 -22z m2442 24 c9 -3 16 -13 16 -21 0 -38 -186 -167
-240 -165 -45 1 -90 29 -90 56 0 40 78 102 160 127 31 9 133 11 154 3z m-3838
-39 c107 -19 224 -69 224 -96 0 -10 -11 -26 -25 -35 -28 -18 -100 -16 -205 7
-68 15 -120 61 -120 108 0 37 2 37 126 16z m5154 -14 c0 -40 -43 -88 -88 -101
-98 -27 -165 -37 -198 -30 -147 33 -30 117 216 154 65 9 70 7 70 -23z m-4286
4 c42 -20 173 -139 190 -174 8 -15 17 -43 21 -62 l7 -35 -72 -11 c-99 -16
-143 1 -230 87 -78 76 -101 128 -80 179 12 30 15 31 72 31 33 0 74 -7 92 -15z
m893 -15 c151 -65 310 -198 363 -303 62 -125 23 -227 -88 -227 -38 0 -138 58
-186 109 -103 107 -135 154 -167 240 -37 100 -46 159 -30 190 13 24 35 22 108
-9z m1619 -7 c16 -61 -47 -237 -112 -314 -117 -138 -212 -209 -282 -209 -70 0
-112 44 -112 116 0 143 206 349 422 423 61 21 76 18 84 -16z m943 6 c26 -46 1
-102 -77 -179 -89 -86 -137 -104 -233 -88 -38 6 -69 16 -69 22 0 64 57 141
160 221 64 50 76 54 150 52 48 -2 56 -5 69 -28z m-1705 -133 c42 -35 97 -74
121 -87 l45 -24 -6 -55 c-2 -30 -7 -78 -10 -106 l-5 -52 -112 -45 c-159 -65
-151 -65 -243 -16 -43 23 -92 45 -109 48 -29 7 -30 8 -33 76 -2 39 -1 93 3
121 6 50 8 53 78 105 78 59 151 99 177 99 10 0 52 -29 94 -64z m-3096 -95 c23
-6 42 -16 42 -21 0 -6 5 -10 12 -10 24 0 167 -73 162 -82 -4 -5 -18 -6 -33 -2
-14 4 -44 10 -66 14 -41 8 -367 124 -394 141 -10 5 19 7 80 3 72 -5 98 -4 104
6 5 9 13 6 29 -12 11 -14 40 -30 64 -37z m6190 43 c53 4 95 6 92 3 -11 -10
-400 -147 -418 -147 -10 0 -34 -5 -51 -11 -21 -7 -36 -8 -42 -2 -6 6 19 23 70
46 44 21 85 37 91 37 5 0 10 4 10 10 0 5 21 15 46 21 28 7 51 21 61 36 12 18
18 21 29 12 10 -8 43 -10 112 -5z m-5084 -24 c40 -13 96 -71 96 -100 0 -33
-48 -24 -131 24 -62 37 -109 79 -109 99 0 6 107 -11 144 -23z m3906 0 c-20
-38 -160 -120 -205 -120 -36 0 -33 32 8 76 35 38 99 62 170 63 34 1 37 -1 27
-19z m-4138 -40 c20 -6 59 -28 85 -48 26 -21 82 -60 123 -86 85 -55 135 -99
156 -138 12 -23 12 -29 -4 -47 -14 -17 -30 -22 -82 -24 -60 -2 -73 2 -162 46
-90 44 -104 54 -178 140 -80 91 -98 123 -86 152 6 18 91 21 148 5z m4386 -17
c5 -34 -20 -71 -110 -164 -86 -89 -109 -104 -217 -145 -49 -19 -74 -23 -110
-19 -77 11 -81 13 -81 49 0 42 46 87 186 180 54 36 111 75 125 87 34 27 79 38
149 36 48 -2 55 -5 58 -24z m-3223 -24 c50 -23 163 -116 199 -164 39 -50 40
-95 3 -113 -26 -12 -33 -11 -94 23 -136 75 -263 199 -263 257 0 32 84 30 155
-3z m2060 -8 c-17 -69 -114 -164 -243 -237 -42 -24 -82 -44 -88 -44 -7 0 -22
8 -34 18 -37 30 -20 73 64 154 105 104 200 151 278 140 26 -4 29 -7 23 -31z
m-2454 -119 c58 -25 119 -78 119 -103 0 -35 -43 -41 -179 -24 -88 10 -134 20
-151 33 -26 19 -51 78 -43 99 11 29 183 26 254 -5z m2911 22 c44 -8 52 -24 34
-69 -22 -52 -51 -64 -191 -81 -178 -22 -212 -4 -139 71 66 68 178 98 296 79z
m-1726 -173 c54 -24 69 -66 61 -165 -9 -116 -41 -192 -106 -255 -120 -114
-274 -151 -369 -88 -63 42 -96 99 -100 177 -8 133 30 172 307 317 75 39 142
43 207 14z m537 -17 c207 -108 247 -135 278 -188 27 -46 30 -58 27 -121 -4
-86 -36 -141 -106 -186 -44 -29 -52 -30 -115 -25 -126 9 -263 98 -311 199 -43
94 -58 218 -35 287 26 74 155 91 262 34z m-3733 -29 c41 -9 221 -51 400 -95
331 -80 429 -101 558 -121 39 -6 72 -15 72 -20 0 -28 -122 -59 -158 -40 -10 6
-142 28 -293 50 -416 62 -569 104 -646 177 -71 67 -60 75 67 49z m6823 -2
c-20 -59 -114 -112 -263 -149 -117 -29 -205 -45 -479 -84 -117 -17 -222 -35
-233 -41 -27 -14 -113 -2 -141 21 -12 10 -19 21 -16 24 3 3 51 13 106 21 112
17 238 44 513 112 256 63 471 111 497 112 17 1 21 -3 16 -16z m-6993 -63 c0
-15 13 -23 58 -36 31 -9 62 -20 68 -25 17 -14 138 -54 229 -78 111 -28 516
-111 595 -122 111 -15 393 -38 670 -54 146 -9 324 -24 397 -35 73 -11 159 -20
192 -20 33 0 70 -4 83 -10 33 -13 326 -40 449 -40 62 0 98 -4 89 -9 -50 -29
-339 -42 -480 -22 -41 6 -163 11 -270 11 -444 1 -705 17 -1065 64 -369 48
-348 43 -670 166 -239 91 -422 197 -383 221 22 15 38 10 38 -11z m7084 -27
c-55 -49 -247 -139 -469 -221 -104 -39 -208 -75 -230 -81 -22 -6 -202 -31
-400 -56 -356 -44 -364 -44 -765 -50 -223 -3 -445 -11 -495 -17 -159 -19 -446
-6 -494 22 -11 6 19 9 86 10 122 0 431 28 455 41 9 5 47 9 84 9 37 0 124 9
193 20 69 10 250 26 401 35 273 15 564 39 670 54 96 14 500 100 620 132 63 17
137 41 166 55 29 13 75 31 103 40 37 11 51 20 51 33 0 14 6 17 31 13 l32 -5
-39 -34z m-5611 -9 c225 -12 382 -14 617 -9 524 12 710 7 710 -18 0 -7 -7 -21
-16 -32 -14 -19 -31 -20 -472 -28 -251 -4 -524 -9 -607 -10 -99 -1 -254 8
-455 26 -389 35 -410 38 -410 49 0 6 -7 8 -15 4 -8 -3 -27 -1 -42 5 -54 20 1
29 195 29 106 0 329 -7 495 -16z m4817 6 c11 -7 9 -11 -13 -19 -15 -6 -34 -8
-42 -5 -8 4 -15 2 -15 -4 0 -12 -31 -16 -400 -49 -328 -30 -313 -30 -1103 -16
-408 8 -429 9 -443 27 -8 11 -14 25 -14 32 0 18 127 27 310 24 307 -7 978 -2
1120 7 193 13 581 15 600 3z m-4089 -175 c243 -15 529 -42 537 -50 9 -9 -23
-13 -183 -27 -206 -17 -413 -15 -545 6 -58 9 -141 21 -185 27 -97 12 -225 38
-245 50 -24 14 375 10 621 -6z m3286 9 c-9 -9 -148 -44 -177 -44 -14 0 -100
-12 -191 -26 -116 -19 -206 -27 -309 -28 -164 -1 -505 23 -492 36 10 10 262
34 532 52 202 14 648 21 637 10z"/>
<path d="M5314 1104 c-14 -54 31 -139 125 -237 58 -62 92 -79 130 -66 115 40
31 206 -147 289 -47 22 -89 40 -93 40 -5 0 -12 -12 -15 -26z"/>
<path d="M6738 1092 c-86 -41 -127 -75 -169 -141 -46 -71 -37 -129 22 -150 41
-14 78 8 154 91 81 90 118 173 99 222 -8 22 -17 20 -106 -22z"/>
<path d="M5985 988 c-29 -16 -71 -62 -89 -96 -15 -29 -14 -32 15 -71 46 -65
98 -75 229 -45 74 17 120 49 120 85 0 77 -87 139 -194 139 -34 0 -70 -6 -81
-12z"/>
<path d="M5663 515 c-90 -28 -183 -101 -183 -145 0 -35 31 -103 56 -125 21
-18 35 -22 68 -18 155 20 257 129 226 243 -16 60 -72 75 -167 45z"/>
<path d="M6368 519 c-57 -22 -58 -132 -2 -198 42 -50 79 -71 154 -87 68 -14
72 -14 100 6 27 19 60 91 60 131 0 31 -59 88 -124 118 -69 33 -147 46 -188 30z"/>
<path d="M6389 8287 c-78 -29 -140 -93 -185 -190 -131 -288 -3 -676 234 -704
266 -31 439 406 283 715 -60 120 -138 181 -238 188 -35 3 -73 -1 -94 -9z m150
-137 c48 -24 87 -69 120 -140 23 -49 26 -67 26 -165 0 -98 -3 -116 -26 -165
-65 -139 -167 -193 -267 -141 -176 91 -206 429 -50 578 58 56 129 68 197 33z"/>
<path d="M4880 7840 l0 -440 45 0 45 0 1 218 0 217 110 -217 109 -218 55 0 55
0 -114 223 -115 222 85 155 c47 85 101 183 119 218 l35 62 -53 0 -53 0 -114
-220 -115 -220 -3 220 -2 220 -45 0 -45 0 0 -440z"/>
<path d="M5334 8263 c3 -10 21 -92 40 -183 19 -91 60 -280 91 -420 30 -139 55
-255 55 -257 0 -2 18 -3 39 -3 46 0 35 -39 97 338 27 160 52 292 55 292 3 0
25 -114 47 -252 23 -139 47 -281 53 -315 l11 -63 38 0 c31 0 39 4 43 23 3 12
45 202 92 422 47 220 88 408 91 418 5 16 0 18 -42 15 l-47 -3 -67 -335 c-54
-269 -68 -328 -74 -300 -4 19 -31 170 -60 335 l-52 300 -32 3 c-37 4 -27 42
-92 -333 -28 -159 -54 -299 -58 -309 -6 -13 -25 66 -61 245 -29 145 -59 294
-68 332 l-15 67 -44 0 c-39 0 -45 -3 -40 -17z"/>
<path d="M6900 7840 l0 -440 45 0 45 0 1 218 0 217 110 -217 109 -218 55 0 55
0 -115 223 -114 222 85 155 c47 85 100 183 119 218 l35 62 -53 0 -53 0 -114
-220 -115 -220 -3 220 -2 220 -45 0 -45 0 0 -440z"/>
<path d="M3410 6703 c1 -5 7 -37 15 -73 12 -54 14 -225 15 -980 0 -624 -3
-954 -11 -1036 -11 -115 -11 -124 8 -160 17 -34 26 -40 68 -48 72 -15 99 4
103 72 l3 52 885 0 884 0 0 -45 c0 -64 27 -89 87 -82 59 6 94 40 93 88 0 19
-3 462 -6 984 l-5 950 30 18 c16 10 39 31 51 47 25 34 18 54 -36 106 -36 35
-118 94 -131 94 -5 0 -26 -25 -48 -55 l-40 -55 -882 0 -882 0 -68 47 c-37 26
-70 50 -73 53 -7 7 -48 30 -55 30 -3 0 -5 -3 -5 -7z m1074 -335 c3 -50 6 -126
6 -170 l0 -78 -352 0 c-273 0 -371 3 -431 15 -44 8 -83 18 -88 21 -5 3 -9 72
-9 155 l0 149 434 0 433 0 7 -92z m896 -813 l0 -905 -885 0 -885 0 1 743 1
742 35 -74 34 -73 37 6 c20 3 202 9 405 12 310 6 367 5 367 -7 1 -188 85 -637
140 -756 11 -24 20 -49 20 -58 0 -23 -167 -187 -235 -231 -33 -21 -62 -41 -65
-44 -12 -14 -149 -95 -199 -119 -88 -41 -86 -38 -50 -79 18 -20 38 -41 46 -45
17 -10 210 81 315 148 79 51 192 138 249 192 l35 34 50 -62 c115 -145 327
-302 426 -315 43 -6 49 -4 78 25 27 27 31 36 25 64 -4 17 -20 47 -36 65 -40
45 -37 79 17 247 64 198 63 180 16 204 -38 19 -62 15 -62 -12 0 -24 -123 -297
-141 -313 -17 -15 -22 -16 -45 -3 -33 17 -200 192 -208 217 -4 13 10 43 42 93
65 98 134 228 167 315 26 68 29 71 71 82 84 23 93 92 17 131 -40 20 -189 71
-209 71 -6 0 -13 -24 -16 -58 -7 -72 -56 -218 -109 -325 -62 -125 -62 -125
-92 0 -39 160 -56 271 -64 415 l-6 129 299 -1 c164 0 307 0 316 0 10 0 25 11
34 25 15 23 15 27 1 49 -15 22 -174 152 -194 158 -6 2 -34 -25 -63 -59 l-53
-63 -174 0 -173 0 0 69 c0 66 1 69 29 81 40 16 85 65 75 82 -22 37 86 -66 113
-108 58 -88 67 -97 103 -97 46 0 80 40 80 95 0 35 -6 47 -47 87 -45 44 -136
99 -192 116 -20 6 -29 2 -52 -26 -26 -32 -28 -33 -55 -20 -16 8 -65 24 -109
37 l-80 23 428 0 427 1 0 -905z"/>
<path d="M3757 5548 c3 -325 4 -343 22 -362 18 -17 26 -18 68 -10 38 7 52 16
70 43 12 18 20 37 17 42 -3 5 -2 9 3 9 4 0 76 1 158 3 l150 2 3 -23 c5 -36 62
-57 105 -39 70 30 72 37 68 246 l-3 187 36 36 c50 50 47 72 -20 135 -86 82
-88 82 -141 29 l-46 -46 -154 0 -154 0 -88 45 c-48 25 -90 45 -92 45 -2 0 -3
-154 -2 -342z m493 -13 l0 -145 -160 0 -160 0 0 145 0 145 160 0 160 0 0 -145z"/>
<path d="M4425 5189 c-201 -66 -513 -134 -702 -155 -35 -4 -63 -11 -63 -17 0
-24 85 -174 118 -209 34 -36 37 -37 55 -21 10 10 25 32 32 49 10 24 21 33 49
38 82 16 411 134 544 197 34 16 66 29 71 29 21 0 22 36 4 103 -5 21 2 22 -108
-14z"/>
<path d="M8402 6628 c-17 -106 -60 -234 -119 -354 l-46 -94 -140 0 -140 0 24
26 c20 22 24 35 24 92 0 55 -6 77 -29 120 -29 51 -201 243 -235 262 -13 6 -27
2 -54 -17 -21 -14 -37 -29 -37 -34 0 -4 18 -29 40 -55 48 -58 133 -228 150
-299 6 -27 18 -60 26 -72 l14 -23 -109 0 c-60 0 -145 7 -188 15 -43 8 -81 15
-84 15 -4 0 8 -35 27 -77 l33 -78 241 4 240 3 0 -181 0 -181 -122 0 c-111 1
-161 5 -295 26 l-43 7 35 -79 34 -79 88 5 c48 3 135 5 193 5 l105 0 0 -205 0
-205 -230 2 c-158 1 -252 6 -300 16 -38 8 -72 13 -74 11 -2 -2 11 -39 31 -81
28 -62 38 -77 54 -75 10 2 133 6 272 9 l253 5 -2 -178 c-1 -99 -6 -244 -12
-323 l-11 -144 28 -23 c19 -17 39 -24 71 -24 36 0 47 5 69 31 14 17 26 40 27
52 0 12 0 154 -1 315 l-1 292 345 0 c333 0 347 1 366 20 38 38 27 55 -95 150
-57 44 -108 80 -114 80 -5 0 -36 -31 -67 -70 l-58 -70 -188 0 -188 0 0 210 0
211 237 -1 238 -1 23 26 c21 25 22 28 6 54 -9 16 -28 35 -43 44 -14 9 -57 41
-94 71 -38 30 -74 52 -80 50 -7 -3 -34 -34 -62 -70 l-49 -64 -88 0 -88 0 0
180 0 180 291 0 c247 0 296 2 325 16 42 20 45 50 7 87 -56 54 -195 156 -206
151 -7 -3 -34 -34 -62 -69 l-50 -65 -61 0 -62 0 62 103 c33 57 70 127 80 155
19 49 21 51 68 57 85 12 121 83 61 122 -26 17 -220 93 -238 93 -6 0 -16 -37
-23 -82z"/>
<path d="M7264 6672 c-5 -4 -31 -33 -58 -64 l-48 -58 -198 0 c-137 0 -223 5
-280 16 -45 8 -84 13 -87 10 -5 -5 44 -123 61 -145 7 -9 23 -11 56 -7 25 3
195 6 379 7 184 0 345 5 357 9 27 11 46 43 38 64 -3 9 -47 49 -98 89 -108 87
-109 88 -122 79z"/>
<path d="M7259 6134 l-54 -65 -300 4 c-223 4 -315 9 -358 20 -67 18 -66 23
-16 -89 29 -63 32 -66 59 -61 15 4 99 9 185 13 l156 7 -3 -754 c-2 -415 -7
-762 -12 -771 -6 -13 0 -26 23 -49 29 -29 36 -31 79 -26 34 4 53 12 69 32 l23
26 0 770 0 769 194 0 c164 0 197 3 210 16 21 20 20 56 -1 78 -35 33 -182 146
-191 146 -5 0 -34 -30 -63 -66z"/>
<path d="M6598 5749 c14 -37 17 -84 16 -304 -1 -344 -25 -528 -90 -695 -14
-36 -31 -71 -37 -78 -8 -10 0 -22 33 -52 24 -22 47 -37 51 -34 4 2 27 35 52
72 105 161 152 379 164 760 l6 204 26 16 c53 34 66 76 34 104 -19 16 -97 33
-205 44 l-66 6 16 -43z"/>
<path d="M7233 5738 c11 -52 17 -774 8 -941 -4 -72 -3 -80 20 -102 13 -13 31
-24 39 -25 40 -6 71 2 95 23 l26 22 -1 435 0 435 40 17 c52 22 69 57 46 93
-24 37 -117 72 -239 90 l-45 7 11 -54z"/>
<path d="M4547 3786 c-58 -21 -106 -63 -148 -129 -152 -236 -96 -614 110 -735
61 -36 164 -38 227 -5 52 28 110 92 140 157 l24 51 -41 3 c-37 3 -44 -1 -75
-37 -88 -103 -237 -89 -319 29 -114 164 -68 450 85 528 84 42 159 25 227 -52
36 -41 45 -46 82 -46 22 0 41 3 41 6 0 16 -54 114 -80 147 -67 80 -185 116
-273 83z"/>
<path d="M7499 3786 c-108 -38 -191 -154 -223 -309 -20 -96 -20 -168 0 -264
27 -134 93 -238 183 -291 61 -36 164 -38 227 -5 90 48 164 169 189 310 8 43
14 88 15 101 l0 22 -190 0 -190 0 0 -65 0 -65 145 0 c80 0 145 -3 145 -7 0
-22 -65 -115 -101 -146 -95 -82 -224 -52 -295 69 -101 171 -52 433 95 511 25
13 62 23 84 23 53 0 121 -34 153 -76 23 -30 32 -34 70 -34 24 0 44 2 44 5 0
22 -68 133 -101 164 -65 64 -167 87 -250 57z"/>
<path d="M5040 3340 l0 -440 45 0 45 0 0 190 0 190 125 0 125 0 0 -190 0 -190
45 0 45 0 0 440 0 440 -45 0 -45 0 0 -185 0 -185 -125 0 -125 0 0 185 0 185
-45 0 -45 0 0 -440z"/>
<path d="M5620 3340 l0 -440 160 0 160 0 0 65 0 65 -115 0 -115 0 0 125 0 125
115 0 115 0 0 65 0 65 -115 0 -115 0 0 120 0 120 115 0 115 0 0 65 0 65 -160
0 -160 0 0 -440z"/>
<path d="M6102 3422 l3 -358 30 -59 c80 -157 254 -153 326 7 23 52 24 59 27
411 l4 357 -46 0 -46 0 0 -316 c0 -200 -4 -331 -11 -360 -29 -113 -159 -113
-188 0 -7 29 -11 160 -11 360 l0 316 -46 0 -45 0 3 -358z"/>
<path d="M6640 3341 l0 -441 45 0 45 0 0 343 1 342 152 -342 152 -343 43 0 42
0 0 440 0 440 -45 0 -45 0 0 -332 0 -333 -149 330 -148 330 -47 3 -46 3 0
-440z"/>
</g>
</svg>
